<svg width="100%" viewBox="0 0 160 133" fill="none" xmlns="http://www.w3.org/2000/svg">
    <rect width="160" height="133" rx="5" fill="#3D3D3D"/>
    <rect x="10" y="9" width="140" height="16" rx="2" fill="#1F1F1F"/>
    <path d="M10 11C10 9.89543 10.8954 9 12 9H14.058V25H12C10.8954 25 10 24.1046 10 23V11Z" fill="#2DCE81"/>
    <rect x="10" y="57" width="140" height="16" rx="2" fill="#1F1F1F"/>
    <path d="M10 59C10 57.8954 10.8954 57 12 57H14.058V73H12C10.8954 73 10 72.1046 10 71V59Z" fill="#2DCE81"/>
    <rect x="10" y="33" width="140" height="16" rx="2" fill="#1F1F1F"/>
    <path d="M10 35C10 33.8954 10.8954 33 12 33H14.058V49H12C10.8954 49 10 48.1046 10 47V35Z" fill="#2DCE81"/>
    <rect x="10" y="81" width="140" height="16" rx="2" fill="#1F1F1F"/>
    <path d="M10 83C10 81.8954 10.8954 81 12 81H14.058V97H12C10.8954 97 10 96.1046 10 95V83Z" fill="#2DCE81"/>
    <rect x="10" y="105" width="140" height="16" rx="2" fill="#1F1F1F"/>
    <path d="M10 107C10 105.895 10.8954 105 12 105H14.058V121H12C10.8954 121 10 120.105 10 119V107Z" fill="#2DCE81"/>
</svg>
