<svg width="100%" viewBox="0 0 248 177" fill="none" xmlns="http://www.w3.org/2000/svg">
    <rect width="248" height="177" rx="5" fill="#3D3D3D"/>
    <rect x="16" y="31" width="222" height="18" rx="2" fill="#1F1F1F"/>
    <rect x="16" y="14" width="128" height="10" rx="2" fill="white" fill-opacity="0.5"/>
    <rect x="16" y="139" width="169" height="3" rx="1.5" fill="white" fill-opacity="0.5"/>
    <rect x="16" y="125" width="82" height="7" rx="2" fill="white" fill-opacity="0.5"/>
    <rect x="16" y="61" width="222" height="3" rx="1.5" fill="white" fill-opacity="0.5"/>
    <rect x="201.5" y="59.5" width="6" height="6" rx="3" fill="white" stroke="white"/>
    <rect x="16" y="75" width="222" height="3" rx="1.5" fill="white" fill-opacity="0.5"/>
    <rect x="111.5" y="73.5" width="6" height="6" rx="3" fill="white" stroke="white"/>
    <rect x="16" y="89" width="222" height="3" rx="1.5" fill="white" fill-opacity="0.5"/>
    <rect x="52.5" y="87.5" width="6" height="6" rx="3" fill="white" stroke="white"/>
    <rect x="17" y="106" width="222" height="3" rx="1.5" fill="white" fill-opacity="0.5"/>
    <rect x="157.5" y="104.5" width="6" height="6" rx="3" fill="white" stroke="white"/>
    <rect x="196.5" y="150.5" width="41" height="14" rx="2.5" fill="#313131" stroke="#FF00E5"/>
    <rect x="136.5" y="150.5" width="41" height="14" rx="2.5" fill="#313131" stroke="#F4BE4F"/>
    <rect x="76.5" y="150.5" width="41" height="14" rx="2.5" fill="#313131" stroke="#2DCE81"/>
    <rect x="16.5" y="150.5" width="41" height="14" rx="2.5" fill="#313131" stroke="white"/>
    <rect x="22" y="157" width="30" height="1" rx="0.5" fill="white"/>
    <rect x="83" y="157" width="30" height="1" rx="0.5" fill="#2DCE81"/>
    <rect x="142" y="157" width="30" height="1" rx="0.5" fill="#F4BE4F"/>
    <rect x="202" y="157" width="30" height="1" rx="0.5" fill="#FF00E5"/>
</svg>
