<?xml version="1.0" standalone="no"?>
<!DOCTYPE svg PUBLIC "-//W3C//DTD SVG 20010904//EN"
 "http://www.w3.org/TR/2001/REC-SVG-20010904/DTD/svg10.dtd">
<svg version="1.0" xmlns="http://www.w3.org/2000/svg"
 width="1275.000000pt" height="1275.000000pt" viewBox="0 0 1275.000000 1275.000000"
 preserveAspectRatio="xMidYMid meet">
<metadata>
Created by potrace 1.14, written by Peter Selinger 2001-2017
</metadata>
<g transform="translate(0.000000,1275.000000) scale(0.100000,-0.100000)"
fill="#000000" stroke="none">
<path d="M6078 12745 c-1 -1 -55 -6 -118 -9 -63 -4 -133 -9 -155 -11 -88 -8
-167 -17 -183 -20 -9 -1 -44 -6 -77 -9 -62 -7 -80 -10 -175 -26 -30 -5 -71
-11 -90 -14 -38 -6 -271 -52 -307 -61 -13 -3 -31 -7 -40 -9 -335 -78 -784
-223 -1038 -336 -22 -9 -78 -34 -125 -55 -165 -73 -406 -196 -542 -276 -27
-16 -51 -29 -54 -29 -9 0 -253 -156 -387 -247 -116 -79 -311 -220 -354 -258
-7 -5 -18 -15 -25 -20 -68 -55 -190 -156 -218 -181 -19 -17 -62 -55 -95 -84
-78 -68 -377 -367 -445 -445 -29 -33 -67 -76 -84 -95 -35 -39 -123 -144 -146
-174 -8 -10 -27 -33 -41 -50 -14 -17 -67 -87 -118 -156 -51 -69 -99 -133 -107
-143 -8 -9 -14 -21 -14 -26 0 -5 -4 -11 -8 -13 -15 -6 -247 -374 -315 -498
-16 -30 -46 -84 -65 -120 -304 -554 -560 -1301 -662 -1930 -11 -69 -22 -134
-24 -145 -2 -11 -7 -49 -11 -85 -3 -36 -8 -78 -10 -95 -31 -237 -40 -412 -40
-745 1 -273 6 -438 19 -571 3 -24 8 -71 11 -104 12 -119 16 -152 36 -280 11
-71 22 -141 24 -155 2 -14 18 -92 35 -175 17 -82 33 -161 36 -175 2 -14 7 -32
10 -40 3 -8 8 -26 10 -39 21 -109 137 -484 218 -705 87 -235 309 -716 391
-847 14 -21 25 -41 25 -43 0 -4 86 -148 143 -240 86 -140 329 -491 357 -516 3
-3 19 -23 35 -45 31 -42 38 -50 101 -126 22 -25 59 -69 84 -99 82 -99 143
-164 325 -345 187 -188 230 -228 355 -335 41 -35 80 -69 86 -74 7 -6 24 -20
39 -30 14 -11 36 -29 48 -39 45 -41 327 -247 442 -324 462 -309 945 -548 1475
-731 264 -91 601 -180 875 -231 110 -21 336 -55 430 -66 28 -3 66 -7 85 -10
181 -22 334 -29 660 -29 278 -1 531 8 592 19 11 3 55 7 96 11 42 3 84 8 95 10
11 2 45 6 76 10 31 3 65 8 76 10 11 2 40 7 65 10 25 3 54 8 65 10 11 2 34 7
50 9 17 3 57 10 90 16 263 46 814 197 1015 280 25 10 87 34 138 54 51 20 101
40 110 44 9 5 46 21 82 36 113 48 151 66 310 145 168 84 177 89 355 192 167
96 476 297 556 362 14 12 37 28 49 36 13 8 37 27 54 41 17 14 40 32 52 40 11
8 43 32 69 54 161 133 197 163 265 223 107 95 423 412 511 512 41 46 79 90 86
98 7 7 29 34 50 60 21 26 40 49 43 52 18 17 161 204 234 305 148 207 203 290
306 465 40 69 83 141 95 160 12 19 67 125 122 235 85 170 123 252 228 500 22
51 112 297 130 355 10 30 28 87 41 126 57 177 170 641 188 779 4 27 20 130 31
195 2 14 7 45 10 70 2 25 7 61 10 80 5 35 14 122 20 190 27 292 27 890 1 1135
-2 17 -7 64 -10 105 -4 41 -9 86 -11 100 -2 14 -7 50 -10 80 -4 30 -9 64 -11
75 -2 10 -6 37 -9 60 -3 22 -13 78 -21 125 -9 47 -18 96 -20 110 -9 51 -28
143 -37 180 -6 21 -61 244 -72 290 -22 92 -126 412 -183 565 -159 425 -390
875 -652 1271 -65 98 -175 255 -207 294 -6 8 -47 60 -90 115 -75 96 -172 215
-196 240 -7 7 -37 41 -67 76 -60 70 -405 418 -486 489 -43 39 -125 109 -184
160 -10 8 -35 29 -56 45 -20 17 -42 35 -48 40 -27 27 -333 250 -441 322 -141
94 -383 240 -510 308 -102 55 -363 185 -369 185 -3 0 -37 15 -78 34 -254 117
-640 253 -948 335 -112 29 -325 79 -365 86 -11 1 -74 13 -140 25 -66 12 -131
23 -145 25 -184 24 -360 45 -420 50 -41 3 -95 8 -120 11 -50 5 -736 14 -742 9z"/>
</g>
</svg>
